<svg width="39" height="38" viewBox="0 0 39 38" fill="none" xmlns="http://www.w3.org/2000/svg">
<path d="M24.6176 28.9453C23.0609 28.9453 21.5707 28.2681 20.5291 27.0872L20.2041 26.7188H18.7959L18.4709 27.0872C17.4294 28.2681 15.9391 28.9453 14.3823 28.9453H14.0449V31.1719H14.3823C16.2765 31.1719 18.0999 30.4543 19.5 29.1791C20.9001 30.4543 22.7235 31.1719 24.6176 31.1719H24.9551V28.9453H24.6176Z" fill="#333333"/>
<path d="M16.227 20.0391H14.0449V22.2656H16.227V20.0391Z" fill="#333333"/>
<path d="M38.12 7.79297V6.67969H37.029C32.5357 6.67969 28.0566 4.95729 24.4169 1.82971C23.0438 0.649785 21.2976 0 19.5 0C17.7024 0 15.9562 0.649785 14.5831 1.82971C10.9435 4.95729 6.46441 6.67969 1.97102 6.67969H0.880005V7.79297C0.880005 12.1563 3.64813 15.8765 7.49883 17.2481V17.8125C5.09249 17.8125 3.13477 19.8102 3.13477 22.2656C3.13477 24.7211 5.09249 26.7188 7.49883 26.7188H7.54793C8.09009 32.9418 13.2016 38 19.5 38C25.7964 38 30.9098 32.9441 31.4521 26.7188H31.5012C33.9075 26.7188 35.8652 24.7211 35.8652 22.2656C35.8652 19.8102 33.9075 17.8125 31.5012 17.8125V17.2481C35.3518 15.8765 38.12 12.1563 38.12 7.79297ZM7.49883 24.4922C6.29566 24.4922 5.3168 23.4934 5.3168 22.2656C5.3168 21.0379 6.29566 20.0391 7.49883 20.0391V24.4922ZM19.5 35.7734C14.0857 35.7734 9.68086 31.2121 9.68086 25.6055V17.8125V17.7513C10.0392 17.7913 10.4031 17.8125 10.7719 17.8125H16.9876L20.6912 20.3319C20.626 20.5945 20.591 20.8693 20.591 21.1523C20.591 22.9939 22.0593 24.4922 23.8641 24.4922C24.5991 24.4922 25.2783 24.2436 25.8253 23.8245L29.3026 26.19C29.009 31.5257 24.7248 35.7734 19.5 35.7734ZM22.7731 21.1523C22.7731 20.5385 23.2625 20.0391 23.8641 20.0391C24.4657 20.0391 24.9551 20.5385 24.9551 21.1523C24.9551 21.7662 24.4657 22.2656 23.8641 22.2656C23.2625 22.2656 22.7731 21.7662 22.7731 21.1523ZM29.3191 17.8125V23.5253L27.0369 21.9728C27.1021 21.7102 27.1371 21.4353 27.1371 21.1523C27.1371 19.3108 25.6688 17.8125 23.8641 17.8125C23.129 17.8125 22.4498 18.0611 21.9029 18.4802L20.9214 17.8125H23.8641H28.2281C28.5969 17.8125 28.9608 17.7913 29.3191 17.7513V17.8125ZM33.6832 22.2656C33.6832 23.4934 32.7043 24.4922 31.5012 24.4922V20.0391C32.7043 20.0391 33.6832 21.0379 33.6832 22.2656ZM28.2281 15.5859H10.7719C6.88292 15.5859 3.65715 12.6601 3.13564 8.87196C7.74497 8.60084 12.269 6.72919 15.9886 3.53289C16.9689 2.69043 18.216 2.22656 19.5 2.22656C20.7841 2.22656 22.0311 2.69043 23.0113 3.53289C26.731 6.72919 31.255 8.60084 35.8643 8.87196C35.3429 12.6601 32.1172 15.5859 28.2281 15.5859Z" fill="#333333"/>
</svg>
