<svg width="54" height="54" viewBox="0 0 54 54" fill="none" xmlns="http://www.w3.org/2000/svg">
<g clip-path="url(#clip0)">
<path d="M52.8728 44.8662C50.5644 44.8662 49.2212 45.9709 48.1795 47.0261L28.6728 17.829C27.5051 16.083 25.7254 14.8951 23.6623 14.4833C21.9704 14.1413 20.2582 14.3641 18.7328 15.0998L14.9349 9.41894L15.8686 8.79575C16.3861 8.45152 16.5255 7.75176 16.1791 7.23657C15.8371 6.71684 15.1396 6.57963 14.6221 6.92386L12.5432 8.31209L10.6803 3.11702C10.5633 2.79082 10.3045 2.53654 9.97609 2.42855C9.64757 2.32277 9.2854 2.3678 8.99738 2.56133L3.38615 6.30953C3.09812 6.50306 2.91145 6.81798 2.88888 7.16221C2.8641 7.50645 2.99909 7.84394 3.25558 8.07796L7.3437 11.7858L5.267 13.174C4.74949 13.5182 4.61006 14.218 4.95651 14.7332C5.1725 15.0594 5.52802 15.2349 5.89251 15.2349C6.10629 15.2349 6.32449 15.1741 6.5157 15.0459L7.45391 14.4204L11.2473 20.0969C8.38316 22.6708 7.76661 27.0356 9.96702 30.3273L19.7901 45.0304C19.3649 44.9337 18.9104 44.8662 18.3951 44.8662C15.756 44.8662 14.3745 46.3084 13.2653 47.467C12.2439 48.5357 11.4384 49.3772 9.75999 49.3772C8.08163 49.3772 7.2761 48.5357 6.25467 47.467C5.1455 46.3106 3.76403 44.8662 1.12488 44.8662C0.504015 44.8662 0 45.3702 0 45.9912C0 46.6121 0.504014 47.1161 1.12499 47.1161C2.80346 47.1161 3.60889 47.9576 4.63031 49.0263C5.73948 50.1827 7.12096 51.6272 9.7601 51.6272C12.3992 51.6272 13.7807 50.185 14.8899 49.0263C15.9113 47.9576 16.7169 47.1161 18.3952 47.1161C20.0691 47.1161 20.8746 47.9576 21.8938 49.0241C23.0007 50.1828 24.3799 51.6273 27.0168 51.6273C29.6514 51.6273 31.0307 50.1851 32.1376 49.0241C33.1546 47.9576 33.9601 47.1161 35.634 47.1161C37.3079 47.1161 38.1112 47.9576 39.1304 49.0241C40.2373 50.1828 41.6165 51.6273 44.2512 51.6273C46.8881 51.6273 48.2695 50.1828 49.3788 49.0241C50.3958 47.9576 51.2012 47.1161 52.8751 47.1161C53.4961 47.1161 54.0001 46.6121 54.0001 45.9912C54 45.3702 53.4938 44.8662 52.8728 44.8662ZM5.8363 7.38053L9.05359 5.23411L10.6173 9.59897L9.26958 10.4967L5.8363 7.38053ZM35.6363 44.8662C32.9994 44.8662 31.6202 46.3084 30.5133 47.4693C30.3108 47.6808 30.1173 47.8743 29.9238 48.0633L23.6893 38.7307C27.2172 36.276 29.3231 34.1881 30.2141 32.2892L39.6277 46.3781C38.6805 45.5637 37.4632 44.8662 35.6363 44.8662ZM26.3059 32.5209C25.9752 31.999 25.2821 31.837 24.7557 32.1699C23.7432 32.8044 22.5845 32.8292 22.4427 32.8089C22.409 32.7572 22.4068 32.4467 22.697 31.9382C23.0772 31.27 23.7815 30.5658 24.6252 30.0011C26.4476 28.7816 27.9034 28.8469 28.0765 29.0921C28.4275 29.5826 28.5445 30.0618 28.4456 30.604C28.2071 31.9022 26.7986 33.5536 24.2585 35.5268L23.8355 34.8923C24.5757 34.7483 25.3204 34.4693 25.9527 34.071C26.4769 33.7426 26.6366 33.0474 26.3059 32.5209ZM44.3276 49.366L29.9261 27.8164C29.9238 27.8142 29.9215 27.8118 29.9193 27.8096C29.9126 27.8007 29.9103 27.7916 29.9036 27.7826C28.7786 26.2077 26.0315 26.3539 23.3721 28.1291C22.2292 28.894 21.2954 29.848 20.7397 30.8222C20.0467 32.0394 19.9859 33.1868 20.5687 34.0575C20.5709 34.0621 20.5755 34.0643 20.5777 34.0688L22.4361 36.8542C22.1323 37.0657 21.8376 37.2749 21.5092 37.4933C21.2616 37.6598 21.0907 37.9163 21.0321 38.2087C20.9736 38.5012 21.0344 38.8072 21.2009 39.0524L28.0114 49.2445C27.7098 49.3233 27.3882 49.3773 27.0124 49.3773C26.1822 49.3773 25.5657 49.1681 25.0325 48.8306L11.8368 29.0764C10.1134 26.498 10.8108 22.9994 13.3892 21.2759C13.9068 20.9316 14.0462 20.2319 13.6997 19.7167L10.0414 14.2337L10.1246 14.3102C10.3068 14.4767 10.5341 14.5577 10.7636 14.5802C10.7861 14.5824 10.8041 14.5914 10.8266 14.5914C10.8446 14.5914 10.8603 14.6004 10.8783 14.6004C11.0763 14.6004 11.2698 14.5351 11.4453 14.4295C11.4656 14.4182 11.4903 14.4249 11.5106 14.4114L13.387 13.1649C13.8168 12.8769 13.9967 12.3347 13.8212 11.8487L13.774 11.7205L17.4458 17.2148C17.61 17.4623 17.8688 17.6378 18.1613 17.694C18.4561 17.7547 18.7553 17.6918 19.0005 17.5275C20.2492 16.6927 21.7498 16.3981 23.2236 16.686C24.6972 16.9807 25.9685 17.8289 26.8032 19.0776L46.5281 48.5987C45.9386 49.0488 45.2726 49.3503 44.3276 49.366Z" fill="black"/>
</g>
<defs>
<clipPath id="clip0">
<rect width="54" height="54" fill="white"/>
</clipPath>
</defs>
</svg>
