<svg width="43" height="43" viewBox="0 0 43 43" fill="none" xmlns="http://www.w3.org/2000/svg">
<circle cx="21.5" cy="21.5" r="21.5" fill="#00FFB2"/>
<path d="M14.16 15.16C14.621 14.62 15.146 14.139 15.722 13.722" stroke="#323232" stroke-width="1.5" stroke-linecap="round" stroke-linejoin="round"/>
<path d="M26 28.482C24.57 29.44 22.851 30 21 30C20.088 30 19.209 29.862 18.38 29.61" stroke="#323232" stroke-width="1.5" stroke-linecap="round" stroke-linejoin="round"/>
<path d="M15.349 28C14.068 26.965 13.084 25.583 12.523 24" stroke="#323232" stroke-width="1.5" stroke-linecap="round" stroke-linejoin="round"/>
<path d="M12.523 18C12.19 18.94 12 19.946 12 21" stroke="#323232" stroke-width="1.5" stroke-linecap="round" stroke-linejoin="round"/>
<path d="M28.463 26C29.427 24.569 30 22.855 30 21C30 16.029 25.971 12 21 12" stroke="#323232" stroke-width="1.5" stroke-linecap="round" stroke-linejoin="round"/>
<path d="M22.768 16.732C23.744 17.708 23.744 19.291 22.768 20.268C21.792 21.245 20.209 21.244 19.232 20.268C18.255 19.292 18.256 17.709 19.232 16.732C20.208 15.755 21.791 15.756 22.768 16.732" stroke="#323232" stroke-width="1.5" stroke-linecap="round" stroke-linejoin="round"/>
<path d="M25.5 25C25.369 24.671 25.166 24.375 24.906 24.134V24.134C24.467 23.726 23.892 23.5 23.292 23.5C22.292 23.5 19.708 23.5 18.708 23.5C18.108 23.5 17.534 23.727 17.094 24.134V24.134C16.834 24.375 16.631 24.671 16.5 25" stroke="#323232" stroke-width="1.5" stroke-linecap="round" stroke-linejoin="round"/>
</svg>
