<svg width="43" height="43" viewBox="0 0 43 43" fill="none" xmlns="http://www.w3.org/2000/svg">
<circle cx="21.5" cy="21.5" r="21.5" fill="#00FFB2"/>
<path fill-rule="evenodd" clip-rule="evenodd" d="M27.515 15.669L30.098 25.907C30.332 26.833 29.878 27.795 29.015 28.204L21.856 31.595C21.314 31.852 20.686 31.852 20.144 31.595L12.985 28.204C12.122 27.795 11.668 26.833 11.902 25.907L14.485 15.669C14.636 15.073 15.052 14.579 15.615 14.33L20.19 12.304C20.706 12.076 21.294 12.076 21.809 12.304L26.384 14.33C26.947 14.578 27.364 15.072 27.515 15.669Z" stroke="#323232" stroke-width="1.5" stroke-linecap="round" stroke-linejoin="round"/>
<path d="M12.033 27.248L20.144 23.406C20.686 23.149 21.314 23.149 21.856 23.406L29.968 27.248" stroke="#323232" stroke-width="1.5" stroke-linecap="round" stroke-linejoin="round"/>
<path d="M27.06 14.82L21.81 17.144C21.294 17.372 20.706 17.372 20.191 17.144L14.939 14.819" stroke="#323232" stroke-width="1.5" stroke-linecap="round" stroke-linejoin="round"/>
<path d="M21 17.32V31.79" stroke="#323232" stroke-width="1.5" stroke-linecap="round" stroke-linejoin="round"/>
</svg>
