<svg width="43" height="43" viewBox="0 0 43 43" fill="none" xmlns="http://www.w3.org/2000/svg">
<circle cx="21.5" cy="21.5" r="21.5" fill="#00FFB2"/>
<path d="M14.969 17.625L14.302 14.625H12.373" stroke="#323232" stroke-width="1.5" stroke-linecap="round" stroke-linejoin="round"/>
<path fill-rule="evenodd" clip-rule="evenodd" d="M16.731 25.835L14.969 17.625H27.627C28.264 17.625 28.738 18.212 28.605 18.835L27.103 25.835C27.004 26.296 26.597 26.625 26.125 26.625H17.708C17.237 26.625 16.83 26.296 16.731 25.835Z" stroke="#323232" stroke-width="1.5" stroke-linecap="round" stroke-linejoin="round"/>
<path d="M26.465 30.25C26.258 30.25 26.09 30.418 26.092 30.625C26.092 30.832 26.26 31 26.467 31C26.674 31 26.842 30.832 26.842 30.625C26.841 30.418 26.673 30.25 26.465 30.25" stroke="#323232" stroke-width="1.5" stroke-linecap="round" stroke-linejoin="round"/>
<path d="M17.856 30.25C17.649 30.25 17.481 30.418 17.483 30.625C17.482 30.832 17.65 31 17.857 31C18.064 31 18.232 30.832 18.232 30.625C18.232 30.418 18.064 30.25 17.856 30.25" stroke="#323232" stroke-width="1.5" stroke-linecap="round" stroke-linejoin="round"/>
</svg>
