<svg width="43" height="43" viewBox="0 0 43 43" fill="none" xmlns="http://www.w3.org/2000/svg">
<circle cx="21.5" cy="21.5" r="21.5" fill="#00FFB2"/>
<path d="M27.364 14.636C30.8787 18.1508 30.8787 23.8492 27.364 27.3639C23.8493 30.8787 18.1508 30.8787 14.6361 27.3639C11.1214 23.8492 11.1214 18.1507 14.6361 14.636C18.1508 11.1213 23.8493 11.1213 27.364 14.636" stroke="#323232" stroke-width="1.5" stroke-linecap="round" stroke-linejoin="round"/>
<path d="M21.024 12.001C20.888 14.596 21.801 17.235 23.783 19.217C25.497 20.931 27.703 21.842 29.946 21.973" stroke="#323232" stroke-width="1.5" stroke-linecap="round" stroke-linejoin="round"/>
<path d="M18.173 12.46C16.08 16.75 16.804 22.068 20.368 25.632C21.902 27.166 23.764 28.163 25.726 28.649" stroke="#323232" stroke-width="1.5" stroke-linecap="round" stroke-linejoin="round"/>
<path d="M25.633 13.285C24.407 15.576 22.261 17.364 19.54 18.035C17.187 18.616 14.827 18.255 12.84 17.207" stroke="#323232" stroke-width="1.5" stroke-linecap="round" stroke-linejoin="round"/>
<path d="M27.836 15.152C27.409 19.906 24.039 24.083 19.145 25.291C17.039 25.811 14.93 25.701 12.999 25.102" stroke="#323232" stroke-width="1.5" stroke-linecap="round" stroke-linejoin="round"/>
</svg>
