<svg width="43" height="43" viewBox="0 0 43 43" fill="none" xmlns="http://www.w3.org/2000/svg">
<circle cx="21.5" cy="21.5" r="21.5" fill="#00FFB2"/>
<path fill-rule="evenodd" clip-rule="evenodd" d="M16.5591 26.0471L18.677 25.5179C19.3805 25.342 20.023 24.9782 20.5358 24.4654L25.4378 19.5634C25.8361 19.1656 26.06 18.6257 26.06 18.0628C26.06 17.4998 25.8361 16.96 25.4378 16.5622V16.5622C25.04 16.1638 24.5002 15.94 23.9372 15.94C23.3743 15.94 22.8344 16.1638 22.4366 16.5622L17.5345 21.4642C17.0218 21.977 16.658 22.6195 16.4821 23.323L15.9529 25.4409C15.9105 25.6112 15.9604 25.7913 16.0846 25.9154C16.2087 26.0395 16.3888 26.0895 16.5591 26.0471Z" stroke="#323232" stroke-width="1.5" stroke-linecap="round" stroke-linejoin="round"/>
<rect x="11.9962" y="11.9963" width="18.0075" height="18.0075" rx="5" stroke="#323232" stroke-width="1.5" stroke-linecap="round" stroke-linejoin="round"/>
<path d="M23.0009 26.0021H26.0021" stroke="#323232" stroke-width="1.5" stroke-linecap="round" stroke-linejoin="round"/>
</svg>
